<mxfile host="65bd71144e">
    <diagram id="orZAsSfCGGedzvSGVI5O" name="PÃ¡gina-1">
        <mxGraphModel dx="908" dy="546" grid="1" gridSize="10" guides="1" tooltips="1" connect="1" arrows="1" fold="1" page="1" pageScale="1" pageWidth="1654" pageHeight="2336" math="0" shadow="0">
            <root>
                <mxCell id="0"/>
                <mxCell id="1" parent="0"/>
                <mxCell id="10" value="" style="edgeStyle=none;html=1;" edge="1" parent="1" source="2">
                    <mxGeometry relative="1" as="geometry">
                        <mxPoint x="580" y="1030" as="targetPoint"/>
                        <Array as="points">
                            <mxPoint x="580" y="600"/>
                            <mxPoint x="810" y="600"/>
                            <mxPoint x="810" y="920"/>
                            <mxPoint x="580" y="920"/>
                        </Array>
                    </mxGeometry>
                </mxCell>
                <mxCell id="2" value="Inicio" style="ellipse;whiteSpace=wrap;html=1;fillColor=#1ba1e2;fontColor=#ffffff;strokeColor=#006EAF;" vertex="1" parent="1">
                    <mxGeometry x="520" y="240" width="120" height="80" as="geometry"/>
                </mxCell>
                <mxCell id="3" value="Numero" style="shape=parallelogram;perimeter=parallelogramPerimeter;whiteSpace=wrap;html=1;fixedSize=1;fillColor=#008a00;fontColor=#ffffff;strokeColor=#005700;" vertex="1" parent="1">
                    <mxGeometry x="520" y="360" width="120" height="60" as="geometry"/>
                </mxCell>
                <mxCell id="4" value="randint (0,10)" style="rounded=0;whiteSpace=wrap;html=1;fillColor=#6a00ff;fontColor=#ffffff;strokeColor=#3700CC;" vertex="1" parent="1">
                    <mxGeometry x="520" y="450" width="120" height="60" as="geometry"/>
                </mxCell>
                <mxCell id="11" style="edgeStyle=none;html=1;exitX=0;exitY=0.5;exitDx=0;exitDy=0;" edge="1" parent="1" source="5">
                    <mxGeometry relative="1" as="geometry">
                        <mxPoint x="580" y="1030" as="targetPoint"/>
                        <Array as="points">
                            <mxPoint x="340" y="600"/>
                            <mxPoint x="340" y="690"/>
                            <mxPoint x="500" y="690"/>
                            <mxPoint x="500" y="920"/>
                            <mxPoint x="580" y="920"/>
                        </Array>
                    </mxGeometry>
                </mxCell>
                <mxCell id="5" value="Numero==&lt;br&gt;randint" style="rhombus;whiteSpace=wrap;html=1;fillColor=#a20025;fontColor=#ffffff;strokeColor=#6F0000;" vertex="1" parent="1">
                    <mxGeometry x="527.5" y="550" width="105" height="100" as="geometry"/>
                </mxCell>
                <mxCell id="6" value="Haz acertado el numero" style="shape=document;whiteSpace=wrap;html=1;boundedLbl=1;fillColor=#0050ef;fontColor=#ffffff;strokeColor=#001DBC;" vertex="1" parent="1">
                    <mxGeometry x="740" y="650" width="120" height="80" as="geometry"/>
                </mxCell>
                <mxCell id="14" style="edgeStyle=none;html=1;exitX=0;exitY=0.5;exitDx=0;exitDy=0;" edge="1" parent="1" source="7">
                    <mxGeometry relative="1" as="geometry">
                        <mxPoint x="580" y="1030" as="targetPoint"/>
                        <Array as="points">
                            <mxPoint x="190" y="690"/>
                            <mxPoint x="190" y="920"/>
                            <mxPoint x="580" y="920"/>
                        </Array>
                    </mxGeometry>
                </mxCell>
                <mxCell id="7" value="Numero &amp;lt; &lt;br&gt;Randint" style="rhombus;whiteSpace=wrap;html=1;fillColor=#a20025;fontColor=#ffffff;strokeColor=#6F0000;" vertex="1" parent="1">
                    <mxGeometry x="290" y="633.75" width="100" height="112.5" as="geometry"/>
                </mxCell>
                <mxCell id="8" value="El numero que estas buscando es mayor" style="shape=document;whiteSpace=wrap;html=1;boundedLbl=1;fillColor=#0050ef;fontColor=#ffffff;strokeColor=#001DBC;" vertex="1" parent="1">
                    <mxGeometry x="440" y="760" width="120" height="80" as="geometry"/>
                </mxCell>
                <mxCell id="9" value="El numero que estas buscando es menor" style="shape=document;whiteSpace=wrap;html=1;boundedLbl=1;fillColor=#0050ef;fontColor=#ffffff;strokeColor=#001DBC;" vertex="1" parent="1">
                    <mxGeometry x="130" y="760" width="120" height="80" as="geometry"/>
                </mxCell>
                <mxCell id="15" value="Fin" style="ellipse;whiteSpace=wrap;html=1;fillColor=#f0a30a;fontColor=#000000;strokeColor=#BD7000;" vertex="1" parent="1">
                    <mxGeometry x="520" y="960" width="120" height="80" as="geometry"/>
                </mxCell>
            </root>
        </mxGraphModel>
    </diagram>
</mxfile>